<?xml version="1.0" standalone="no"?>
<!DOCTYPE svg PUBLIC "-//W3C//DTD SVG 20010904//EN"
 "http://www.w3.org/TR/2001/REC-SVG-20010904/DTD/svg10.dtd">
<svg version="1.0" xmlns="http://www.w3.org/2000/svg"
 width="700.000000pt" height="700.000000pt" viewBox="0 0 700.000000 700.000000"
 preserveAspectRatio="xMidYMid meet">
<metadata>
Created by potrace 1.14, written by Peter Selinger 2001-2017
</metadata>
<g transform="translate(0.000000,700.000000) scale(0.100000,-0.100000)"
fill="#000000" stroke="none">
<path d="M2160 6115 c-71 -19 -130 -53 -182 -107 -82 -85 -108 -160 -108 -320
l0 -108 -27 0 c-16 0 -255 -2 -533 -3 -499 -3 -506 -3 -562 -25 -54 -22 -136
-89 -170 -140 -13 -19 -27 -23 -92 -27 -138 -10 -240 -57 -336 -154 -69 -69
-109 -138 -134 -231 -22 -82 -22 -3657 0 -3740 26 -97 64 -161 138 -235 78
-78 153 -119 251 -140 48 -10 697 -12 3120 -11 l3060 1 64 23 c162 59 275 174
327 335 l23 72 0 1810 c0 1454 -2 1822 -13 1870 -18 84 -60 166 -113 225 -104
114 -217 168 -372 176 -52 2 -66 7 -79 25 -56 80 -118 125 -208 152 -43 13
-132 15 -568 14 l-516 -2 0 113 c0 87 -5 126 -21 174 -45 134 -140 222 -276
254 -75 17 -2607 17 -2673 -1z m2657 -228 c18 -10 44 -33 59 -52 24 -32 27
-45 31 -145 l4 -110 -98 0 c-158 -1 -2519 -1 -2625 -1 l-97 1 2 109 c2 101 4
111 30 145 32 41 58 57 106 65 19 3 601 6 1295 5 1151 -1 1264 -2 1293 -17z
m1369 -553 c15 -11 37 -33 48 -48 21 -27 21 -30 21 -1401 1 -1474 1 -1469 -50
-1581 -14 -30 -25 -57 -25 -61 0 -15 -93 -133 -138 -175 -108 -101 -225 -156
-372 -176 -30 -4 -350 -6 -710 -6 -751 2 -703 1 -696 13 3 5 14 62 25 127 11
66 25 143 30 173 6 29 11 62 11 72 0 18 -27 19 -833 19 l-834 0 18 -92 c10
-51 21 -113 24 -137 3 -25 8 -48 10 -51 2 -4 7 -33 10 -66 l7 -59 -689 1
c-378 1 -709 4 -734 8 -217 31 -427 197 -512 406 -53 131 -51 61 -52 1540 -1
762 2 1398 7 1414 12 44 56 84 101 93 21 5 1224 8 2672 8 l2634 0 27 -21z
m-5666 -1520 c1 -778 5 -1368 10 -1394 5 -25 12 -56 15 -70 38 -181 165 -380
317 -498 97 -75 253 -150 346 -167 15 -3 38 -8 52 -12 14 -4 358 -8 765 -10
407 -2 743 -7 747 -11 3 -4 9 -25 12 -46 4 -21 8 -48 11 -60 2 -12 7 -39 10
-60 3 -21 8 -51 11 -65 3 -14 7 -36 10 -49 l4 -22 669 0 669 0 11 48 c9 44 17
89 37 217 3 22 7 41 8 42 1 1 339 4 751 6 819 4 788 1 944 64 203 81 381 249
476 448 32 69 74 213 79 278 3 29 5 651 5 1383 l1 1331 52 -9 c83 -15 143 -52
190 -118 57 -79 54 30 54 -1925 l-1 -1800 -23 -44 c-41 -77 -72 -110 -139
-143 l-64 -31 -3022 -1 c-2145 -1 -3037 2 -3072 10 -97 21 -163 72 -206 161
l-23 48 -1 1795 c-1 1930 -3 1851 48 1925 46 66 119 112 196 124 25 4 47 7 48
6 2 -1 3 -609 3 -1351z m3546 -1763 c-5 -18 -13 -60 -20 -111 -3 -19 -8 -46
-11 -60 -3 -14 -7 -43 -10 -65 -3 -22 -7 -47 -10 -55 -2 -8 -6 -33 -9 -55 -7
-46 -16 -93 -22 -115 -3 -13 -65 -15 -484 -15 -474 0 -481 0 -485 20 -20 99
-25 125 -30 160 -4 22 -9 49 -11 60 -1 11 -10 63 -19 115 -8 52 -17 105 -20
116 l-5 22 570 0 c523 0 570 -2 566 -17z"/>
<path d="M3368 5105 c-2 -2 -29 -6 -62 -10 -77 -8 -233 -48 -321 -82 -304
-115 -575 -348 -722 -623 -186 -346 -180 -783 15 -1125 157 -277 415 -492 722
-603 87 -32 179 -57 240 -67 19 -3 59 -9 89 -14 111 -18 338 -11 484 14 259
45 539 190 728 377 134 133 189 206 261 353 333 679 -50 1475 -827 1718 -84
26 -100 30 -235 52 -70 11 -362 19 -372 10z"/>
</g>
</svg>
